<?xml version="1.0" standalone="no"?>
<!DOCTYPE svg PUBLIC "-//W3C//DTD SVG 20010904//EN"
 "http://www.w3.org/TR/2001/REC-SVG-20010904/DTD/svg10.dtd">
<svg version="1.0" xmlns="http://www.w3.org/2000/svg"
 width="343.000000pt" height="344.000000pt" viewBox="0 0 343.000000 344.000000"
 preserveAspectRatio="xMidYMid meet">
<metadata>
Created by potrace 1.16, written by Peter Selinger 2001-2019
</metadata>
<g transform="translate(0.000000,344.000000) scale(0.100000,-0.100000)"
fill="#000000" stroke="none">
<path d="M1616 2979 c-2 -8 -8 -27 -13 -44 -8 -23 -16 -31 -39 -33 -144 -13
-282 -122 -301 -238 -4 -21 -15 -52 -25 -69 -10 -16 -18 -46 -17 -65 1 -34 1
-35 12 -10 24 51 26 51 63 15 l35 -35 -34 -30 c-19 -16 -40 -45 -47 -62 -7
-18 -24 -48 -38 -66 -22 -31 -28 -33 -61 -27 l-36 7 19 -21 c11 -12 25 -21 33
-21 22 0 14 -16 -20 -40 -30 -21 -87 -89 -87 -106 0 -4 19 14 41 40 23 26 44
45 46 42 3 -3 -2 -26 -10 -53 -10 -30 -18 -110 -23 -210 -3 -90 -11 -163 -16
-163 -16 0 -38 -68 -38 -117 0 -111 60 -228 136 -269 34 -17 40 -26 49 -74 6
-30 20 -72 30 -94 19 -39 124 -154 179 -194 l28 -22 -27 -10 c-15 -6 -30 -8
-35 -5 -7 4 -141 -26 -335 -77 -41 -11 -105 -68 -105 -94 0 -17 94 -79 193
-127 163 -80 333 -117 525 -117 221 1 406 49 589 153 125 72 135 88 81 140
-29 29 -52 38 -198 74 -91 23 -184 44 -208 46 -24 3 -46 8 -50 11 -3 4 12 21
34 38 116 93 184 190 199 286 6 36 12 45 39 56 49 20 112 100 130 166 22 79
21 171 -3 201 -15 20 -20 48 -25 154 -9 192 -20 266 -46 313 -13 23 -21 44
-18 48 4 3 23 -6 44 -20 55 -37 55 -23 0 25 -26 23 -55 58 -66 78 -23 47 -91
108 -127 117 -16 3 -47 17 -71 31 -24 13 -65 31 -92 39 -28 8 -50 17 -50 20 0
4 11 19 25 36 14 16 25 37 25 46 0 12 -7 9 -26 -13 -17 -21 -22 -23 -15 -8 20
41 13 98 -15 126 -15 15 -34 41 -43 59 -9 18 -31 40 -48 48 -41 19 -41 25 0
36 l32 8 -37 3 c-21 3 -50 -3 -68 -12 -29 -15 -70 -13 -70 3 0 4 4 23 10 42 6
22 6 38 0 44 -6 6 -11 4 -14 -5z m-6 -796 c68 -6 97 -7 285 -3 83 2 160 0 173
-4 34 -11 51 -55 61 -162 5 -55 14 -112 20 -127 6 -16 11 -46 11 -68 l0 -40
-28 20 c-16 11 -41 23 -58 27 -16 3 -39 16 -52 28 -20 17 -39 22 -112 24 -96
4 -130 -6 -130 -39 0 -19 4 -20 53 -14 28 3 61 9 72 12 11 3 17 2 14 -1 -13
-14 -166 -46 -219 -46 -30 0 -98 11 -150 24 -100 25 -104 34 -6 15 44 -9 60
-9 69 0 9 10 7 16 -10 31 -48 39 -182 36 -231 -5 -15 -12 -41 -26 -59 -29 -18
-4 -44 -16 -58 -27 l-25 -20 0 38 c0 21 6 59 14 84 8 25 17 77 21 115 14 150
26 166 122 175 64 6 88 6 223 -8z m-43 -416 c17 -9 33 -23 36 -32 9 -21 2 -19
-41 10 -61 42 -147 29 -203 -31 l-22 -24 22 -24 c19 -20 34 -24 119 -29 101
-6 142 5 142 38 0 8 8 15 19 15 10 0 24 7 31 15 7 8 20 15 30 15 10 0 23 -7
30 -15 7 -8 19 -15 26 -15 8 0 14 -7 14 -15 0 -30 42 -45 130 -44 97 2 124 9
140 39 14 26 -6 52 -62 81 -62 31 -113 24 -167 -25 -23 -20 -23 -21 -20 -1 6
33 65 54 169 60 80 5 100 4 130 -12 21 -11 36 -27 38 -40 2 -12 10 -27 18 -33
9 -8 14 -31 14 -64 0 -66 -65 -362 -87 -395 -58 -89 -154 -174 -210 -184 -30
-6 -87 14 -103 35 -6 8 -123 7 -130 -1 -3 -3 -19 -14 -37 -24 -61 -33 -141 6
-231 112 -58 68 -67 92 -101 261 -32 158 -40 260 -20 260 5 0 16 16 24 34 8
19 23 40 32 46 27 17 231 7 270 -13z m-407 -11 c0 -8 7 -16 15 -20 8 -3 15
-13 15 -22 0 -15 -4 -14 -25 6 -27 25 -49 20 -23 -6 12 -12 13 -23 5 -53 -6
-21 -7 -50 -2 -67 8 -28 9 -27 15 18 8 66 16 68 23 5 4 -29 10 -68 13 -87 6
-30 5 -33 -12 -27 -13 5 -10 0 9 -16 26 -22 36 -47 18 -47 -21 0 -89 92 -100
135 -17 67 -14 155 6 177 19 21 43 24 43 4z m1117 -8 c34 -43 13 -198 -35
-256 -15 -19 -38 -42 -50 -50 -20 -13 -22 -13 -22 7 0 11 6 21 14 21 7 0 20 7
27 16 12 15 11 16 -7 10 -21 -6 -21 -6 -8 51 8 32 14 72 14 88 0 23 3 27 10
15 5 -8 10 -27 10 -42 0 -15 5 -30 10 -33 13 -8 13 75 0 95 -6 10 -3 21 12 37
25 27 5 32 -24 6 -28 -25 -35 -6 -7 21 28 28 42 31 56 14z m-707 -783 c69 -35
176 -35 245 -1 44 23 52 24 98 13 27 -6 51 -17 54 -24 18 -46 -194 -235 -262
-235 -61 0 -189 97 -244 186 -17 28 -31 53 -31 57 0 4 19 12 43 17 23 6 43 10
45 11 1 1 25 -10 52 -24z"/>
<path d="M1454 1309 c-4 -7 -3 -14 4 -17 6 -2 27 -25 46 -51 90 -127 283 -133
372 -13 15 20 37 45 48 54 19 15 19 17 4 23 -10 4 -41 1 -70 -6 -29 -7 -102
-13 -163 -13 -98 1 -137 6 -211 29 -13 4 -25 2 -30 -6z"/>
</g>
</svg>
